<?xml version="1.0" encoding="UTF-8"?>
<svg id="Layer_1" xmlns="http://www.w3.org/2000/svg" xmlns:xlink="http://www.w3.org/1999/xlink" version="1.1" viewBox="0 0 44 44">
  <!-- Generator: Adobe Illustrator 29.5.1, SVG Export Plug-In . SVG Version: 2.1.0 Build 141)  -->
  <defs>
    <style>
      .st0 {
        fill: none;
      }

      .st1 {
        fill: #fb6308;
      }

      .st2 {
        fill: url(#linear-gradient);
        fill-rule: evenodd;
      }
    </style>
    <linearGradient id="linear-gradient" x1="23.8" y1="57.5" x2="23.8" y2="-105" gradientTransform="translate(0 46) scale(1 -1)" gradientUnits="userSpaceOnUse">
      <stop offset="0" stop-color="#fb6308"/>
      <stop offset="1" stop-color="#071824"/>
    </linearGradient>
  </defs>
  <rect class="st0" width="44" height="44" rx="4" ry="4"/>
  <g>
    <path class="st1" d="M0,4C0,1.8,1.8,0,4,0h36c2.2,0,4,1.8,4,4v36c0,2.2-1.8,4-4,4H4c-2.2,0-4-1.8-4-4V4Z"/>
    <path class="st2" d="M44,22.7v-13.7c-4.5,4.6-10.5,10.3-14.1,11.1-3.8.8-6.1-2.7-6.8-5.9-.4-2-.5-7.6-.4-14.1H5.3c-.6,0-1.1,0-1.6.3,0,8.9.3,18.9,1.4,23.8,1.4,6.3,5.9,13,18.2,10.2,7.8-2.1,14.9-6.1,20.8-11.6Z"/>
  </g>
</svg>