<?xml version="1.0" encoding="UTF-8"?>
<svg id="Layer_1" xmlns="http://www.w3.org/2000/svg" xmlns:xlink="http://www.w3.org/1999/xlink" version="1.1" viewBox="0 0 44 44">
  <!-- Generator: Adobe Illustrator 29.5.1, SVG Export Plug-In . SVG Version: 2.1.0 Build 141)  -->
  <defs>
    <style>
      .st0 {
        fill: none;
      }

      .st1 {
        fill: url(#linear-gradient1);
      }

      .st2 {
        fill: url(#linear-gradient);
      }

      .st3 {
        fill: #213743;
      }
    </style>
    <linearGradient id="linear-gradient" x1="30.1" y1="-13.2" x2="43.3" y2="43.5" gradientUnits="userSpaceOnUse">
      <stop offset="0" stop-color="#557086"/>
      <stop offset="1" stop-color="#213743"/>
    </linearGradient>
    <linearGradient id="linear-gradient1" x1="13.4" y1="-9.3" x2="26.6" y2="47.4" xlink:href="#linear-gradient"/>
  </defs>
  <rect class="st0" width="44" height="44" rx="4" ry="4"/>
  <g>
    <path class="st3" d="M0,4C0,1.8,1.8,0,4,0h36c2.2,0,4,1.8,4,4v36c0,2.2-1.8,4-4,4H4c-2.2,0-4-1.8-4-4V4Z"/>
    <g>
      <path class="st2" d="M40,0h-16.8c2.7,7.1,8.5,13.3,18.8,17.2.6.2,1.3.4,1.9.6V4c0-2.2-1.8-4-4-4Z"/>
      <path class="st1" d="M7.7,0h-3.7C1.8,0,0,1.8,0,4v18.4c6.3,8,15,14.3,26.2,18.5,3.5,1.3,6.7,2.3,9.8,3.1h4c2.2,0,4-1.8,4-4v-7.1c-4.2-.7-8.3-1.9-12.2-3.6C18,24.2,11,12.8,7.7,0Z"/>
    </g>
  </g>
</svg>